# xmcd
#
# Track frame offsets: 
#        150
#        11920
#        25357
#        37067
#        50582
#        64250
#        78052
#        91660
#        104565
#        118355
#        130352
#        144730
#        155535
#        168100
#        179267
#        193332
#        204657
#        216115
#
# Disc length: 3024 seconds
#
# Revision: 3
# Processed by: cddbd v1.5.2PL0 Copyright (c) Steve Scherf et al.
# Submitted via: ExactAudioCopy v1.3
#
DISCID=0c0bce12
DTITLE=Various Artist - Dance Crasher Ska to Rocksteady
DYEAR=1988
DGENRE=Reggae
TTITLE0=Lord Creator - Big Bamboo
TTITLE1=The Skatalites - Latin Goes Ska
TTITLE2=The Maytals - Hallelujah
TTITLE3=Don Drummond - Garden of Love
TTITLE4=Stranger Cole - Rough and Tough
TTITLE5=The Skatalites - Beardman Ska
TTITLE6=Peter Tosh and the Wailers - Shame and Scandal
TTITLE7=The Skatalites - Street Corner
TTITLE8=Carlos Malcolm and The Afro Caribs - Bonanza Ska
TTITLE9=Alton Ellis and The Flames - Dance Crasher
TTITLE10=Don Drummond - Let George Do It
TTITLE11=The Clarendonians - Rudie Bam Bam
TTITLE12=Tommy McCook and The Supremes - Ska Jam
TTITLE13=Lee Perry and The Soulettes - Doctor Dick
TTITLE14=The Skatalites - Ball O'Fire
TTITLE15=The Ethiopians - Owe Me No Pay Me
TTITLE16=Baba Brooks and Band - Independence Ska
TTITLE17=The Rulers - Don't Be a Rude Boy
EXTD=
EXTT0=lord creator
EXTT1=the skatalites
EXTT2=the maytals
EXTT3=Don drummond
EXTT4=Stranger cole
EXTT5=the skatalites
EXTT6=Peter tosh and the wailers
EXTT7=the skatalites
EXTT8=Carlos malcom and the afro caribs
EXTT9=alton ellis and the flame
EXTT10=Don drummond
EXTT11=the clarendonians
EXTT12=Tommy mccook and the supersonics
EXTT13=lee perry and the soulettes
EXTT14=the skatalites
EXTT15=the ethiopians
EXTT16=baba brooks and band
EXTT17=the rulers
PLAYORDER=
